<svg width="171" height="170" viewBox="0 0 171 170" fill="none" xmlns="http://www.w3.org/2000/svg">
<path d="M51.5 136C42.15 136 34.585 143.65 34.585 153C34.585 162.35 42.15 170 51.5 170C60.85 170 68.5 162.35 68.5 153C68.5 143.65 60.85 136 51.5 136ZM0.5 0V17H17.5L48.1 81.515L36.625 102.34C35.265 104.72 34.5 107.525 34.5 110.5C34.5 119.85 42.15 127.5 51.5 127.5H153.5V110.5H55.07C53.88 110.5 52.945 109.565 52.945 108.375L53.2 107.355L60.85 93.5H124.175C130.55 93.5 136.16 90.015 139.05 84.745L169.48 29.58C170.16 28.39 170.5 26.945 170.5 25.5C170.5 20.825 166.675 17 162 17H36.285L28.295 0H0.5ZM136.5 136C127.15 136 119.585 143.65 119.585 153C119.585 162.35 127.15 170 136.5 170C145.85 170 153.5 162.35 153.5 153C153.5 143.65 145.85 136 136.5 136Z" fill="#088EA0"/>
</svg>
