<svg width="200" height="27" viewBox="0 0 200 27" fill="none" xmlns="http://www.w3.org/2000/svg">
<path d="M12.8941 26.3761C10.541 26.3761 8.37994 25.8238 6.41101 24.7193C4.44209 23.6148 2.88135 22.09 1.72881 20.1451C0.576271 18.1762 0 15.9552 0 13.482C0 11.0329 0.576271 8.83582 1.72881 6.89091C2.88135 4.92198 4.44209 3.38526 6.41101 2.28074C8.37994 1.17622 10.541 0.623962 12.8941 0.623962C15.2712 0.623962 17.4322 1.17622 19.3771 2.28074C21.346 3.38526 22.8948 4.92198 24.0233 6.89091C25.1758 8.83582 25.7521 11.0329 25.7521 13.482C25.7521 15.9552 25.1758 18.1762 24.0233 20.1451C22.8948 22.09 21.346 23.6148 19.3771 24.7193C17.4082 25.8238 15.2472 26.3761 12.8941 26.3761ZM12.8941 21.8739C14.4068 21.8739 15.7394 21.5378 16.8919 20.8655C18.0445 20.1691 18.9449 19.1847 19.5932 17.9121C20.2415 16.6395 20.5657 15.1628 20.5657 13.482C20.5657 11.8012 20.2415 10.3365 19.5932 9.08794C18.9449 7.81534 18.0445 6.84288 16.8919 6.17057C15.7394 5.49825 14.4068 5.16209 12.8941 5.16209C11.3813 5.16209 10.0367 5.49825 8.86016 6.17057C7.70762 6.84288 6.8072 7.81534 6.15889 9.08794C5.51059 10.3365 5.18644 11.8012 5.18644 13.482C5.18644 15.1628 5.51059 16.6395 6.15889 17.9121C6.8072 19.1847 7.70762 20.1691 8.86016 20.8655C10.0367 21.5378 11.3813 21.8739 12.8941 21.8739Z" fill="#FCD440"/>
<path d="M42.4696 26.1239L36.923 16.3273H34.5459V26.1239H29.5035V0.984131H38.9399C40.8848 0.984131 42.5416 1.33229 43.9103 2.02862C45.2789 2.70094 46.2994 3.62537 46.9717 4.80193C47.668 5.95447 48.0162 7.25108 48.0162 8.69175C48.0162 10.3485 47.536 11.8492 46.5755 13.1939C45.6151 14.5145 44.1864 15.4269 42.2895 15.9312L48.3043 26.1239H42.4696ZM34.5459 12.5456H38.7598C40.1285 12.5456 41.149 12.2214 41.8213 11.5731C42.4936 10.9008 42.8298 9.97636 42.8298 8.7998C42.8298 7.64726 42.4936 6.75884 41.8213 6.13455C41.149 5.48625 40.1285 5.16209 38.7598 5.16209H34.5459V12.5456Z" fill="#FCD440"/>
<path d="M74.0789 26.1239H69.0366L57.6192 8.87184V26.1239H52.5768V0.948113H57.6192L69.0366 18.2362V0.948113H74.0789V26.1239Z" fill="#FCD440"/>
<path d="M94.4772 21.3337H84.4645L82.8077 26.1239H77.5132L86.5535 0.948113H92.4242L101.464 26.1239H96.1339L94.4772 21.3337ZM93.1085 17.2998L89.4708 6.78286L85.8331 17.2998H93.1085Z" fill="#FCD440"/>
<path d="M132.252 0.984131V26.1239H127.21V9.77226L120.475 26.1239H116.657L109.886 9.77226V26.1239H104.844V0.984131H110.57L118.566 19.6769L126.562 0.984131H132.252Z" fill="#FCD440"/>
<path d="M142.28 5.05404V11.357H150.744V15.3549H142.28V22.018H151.825V26.1239H137.238V0.948113H151.825V5.05404H142.28Z" fill="#FCD440"/>
<path d="M177.909 26.1239H172.867L161.449 8.87184V26.1239H156.407V0.948113H161.449L172.867 18.2362V0.948113H177.909V26.1239Z" fill="#FCD440"/>
<path d="M200 0.984131V5.05404H193.301V26.1239H188.258V5.05404H181.559V0.984131H200Z" fill="#FCD440"/>
</svg>
